<svg width="48" height="48" viewBox="0 0 48 48" fill="none" xmlns="http://www.w3.org/2000/svg">
<path d="M38 8.5H10C6.966 8.5 4.5 10.966 4.5 14V34C4.5 37.034 6.966 39.5 10 39.5H38C41.034 39.5 43.5 37.034 43.5 34V14C43.5 10.966 41.034 8.5 38 8.5ZM10 11.5H38C39.378 11.5 40.5 12.622 40.5 14V18.5H7.5V14C7.5 12.622 8.622 11.5 10 11.5ZM38 36.5H10C8.622 36.5 7.5 35.378 7.5 34V21.5H40.5V34C40.5 35.378 39.378 36.5 38 36.5Z" fill="#01081B"/>
<path d="M17.5 32C17.5 32.828 16.828 33.5 16 33.5H12C11.172 33.5 10.5 32.828 10.5 32C10.5 31.172 11.172 30.5 12 30.5H16C16.828 30.5 17.5 31.172 17.5 32ZM26 30.5H22C21.172 30.5 20.5 31.172 20.5 32C20.5 32.828 21.172 33.5 22 33.5H26C26.828 33.5 27.5 32.828 27.5 32C27.5 31.172 26.828 30.5 26 30.5Z" fill="#2E68FD"/>
</svg>
