<svg width="48" height="48" viewBox="0 0 48 48" fill="none" xmlns="http://www.w3.org/2000/svg">
<path d="M43.136 26.514L40.274 16.478C39.6 14.136 37.426 12.5 34.988 12.5H31.998C31.17 12.5 30.498 13.172 30.498 14C30.498 14.828 31.17 15.5 31.998 15.5H34.988C36.096 15.5 37.084 16.244 37.39 17.304L39.442 24.5H34C32.07 24.5 30.5 26.07 30.5 28C30.5 29.378 29.378 30.5 28 30.5H20C18.622 30.5 17.5 29.378 17.5 28C17.5 26.07 15.93 24.5 14 24.5H8.558L10.608 17.308C10.914 16.242 11.902 15.5 13.01 15.5H16C16.828 15.5 17.5 14.828 17.5 14C17.5 13.172 16.828 12.5 16 12.5H13.01C10.572 12.5 8.398 14.136 7.724 16.482L4.864 26.514C4.622 27.362 4.5 28.238 4.5 29.118V38C4.5 41.034 6.966 43.5 10 43.5H38C41.034 43.5 43.5 41.034 43.5 38V29.118C43.5 28.238 43.378 27.362 43.136 26.514ZM40.5 38C40.5 39.378 39.378 40.5 38 40.5H10C8.622 40.5 7.5 39.378 7.5 38V29.118C7.5 28.616 7.572 28.118 7.686 27.63C7.772 27.556 7.878 27.5 8 27.5H14C14.276 27.5 14.5 27.724 14.5 28C14.5 31.034 16.966 33.5 20 33.5H28C31.034 33.5 33.5 31.034 33.5 28C33.5 27.724 33.724 27.5 34 27.5H40C40.122 27.5 40.226 27.556 40.314 27.63C40.428 28.118 40.5 28.616 40.5 29.118V38Z" fill="#01081B"/>
<path d="M29.0521 18.872C28.4621 18.288 27.5101 18.298 26.9301 18.888L25.4981 20.342V6C25.4981 5.172 24.8261 4.5 23.9981 4.5C23.1701 4.5 22.4981 5.172 22.4981 6V20.398L21.0541 18.966C20.4681 18.382 19.5161 18.384 18.9321 18.974C18.3481 19.562 18.3521 20.512 18.9401 21.096L22.9401 25.066C23.2221 25.346 23.6021 25.502 23.9961 25.502H24.0041C24.4041 25.502 24.7861 25.338 25.0641 25.054L29.0641 20.994C29.6461 20.404 29.6381 19.454 29.0481 18.872H29.0521Z" fill="#2E68FD"/>
</svg>
